User Type,Username,Date,Text
,Evanz8127,2012-10-12T03:13Z,Thank you for the fast upload!
,Zlehtnoba,2012-10-12T03:16Z,why is it so big?
,potterhead,2012-10-12T03:17Z,yay for HD!
,DeTouch,2012-10-12T03:18Z,"Thank you ! Finally, season 4 ;D"
,cheesymee,2012-10-12T03:21Z,thanx dud will seed for some time u r the best :)
,.Leto.,2012-10-12T03:37Z,thanks a lot
,deepi290,2012-10-13T06:42Z,has it got 5.1 audio or not?
,skydeaner,2012-10-21T14:39Z,"Writing application                      : mkvmerge v3.1.0 ('Happy up here') built on Jan 19 2010 12:09:24
Writing library                          : libebml v0.7.9 + libmatroska v0.8.1

Video
ID                                       : 1
Format                                   : AVC
Format/Info                              : Advanced Video Codec
Format profile                           : High@L4.1
Format settings, CABAC                   : Yes
Format settings, ReFrames                : 8 frames
Codec ID                                 : V_MPEG4/ISO/AVC
Duration                                 : 42mn 2s
Bit rate                                 : 2 575 Kbps
Width                                    : 1 280 pixels
Height                                   : 720 pixels
Display aspect ratio                     : 16:9
Frame rate mode                          : Constant
Frame rate                               : 23.976 fps
Color space                              : YUV
Chroma subsampling                       : 4:2:0
Bit depth                                : 8 bits
Scan type                                : Progressive
Bits/(Pixel*Frame)                       : 0.117
Stream size                              : 774 MiB (85%)
Writing library                          : x264 core 128 r2216 198a7ea
Encoding settings                        : cabac=1 / ref=8 / deblock=1:-2:-2 / analyse=0x3:0x113 / me=umh / subme=9 / psy=1 / psy_rd=1.00:0.00 / mixed_ref=1 / me_range=24 / chroma_me=1 / trellis=1 / 8x8dct=1 / cqm=0 / deadzone=21,11 / fast_pskip=0 / chroma_qp_offset=-2 / threads=18 / lookahead_threads=3 / sliced_threads=0 / nr=0 / decimate=1 / interlaced=0 / bluray_compat=0 / constrained_intra=0 / bframes=5 / b_pyramid=2 / b_adapt=1 / b_bias=0 / direct=1 / weightb=1 / open_gop=0 / weightp=2 / keyint=250 / keyint_min=23 / scenecut=40 / intra_refresh=0 / rc_lookahead=40 / rc=crf / mbtree=1 / crf=18.0 / qcomp=0.60 / qpmin=0 / qpmax=69 / qpstep=4 / ip_ratio=1.40 / aq=1:1.00
Language                                 : English
Default                                  : No
Forced                                   : No

Audio
ID                                       : 2
Format                                   : AC-3
Format/Info                              : Audio Coding 3
Mode extension                           : CM (complete main)
Format settings, Endianness              : Big
Codec ID                                 : A_AC3
Duration                                 : 42mn 2s
Bit rate mode                            : Constant
Bit rate                                 : 384 Kbps
Channel(s)                               : 6 channels
Channel positions                        : Front: L C R, Side: L R, LFE
Sampling rate                            : 48.0 KHz
Bit depth                                : 16 bits
Compression mode                         : Lossy
Stream size                              : 115 MiB (13%)
Default                                  : Yes
Forced                                   : No

Looks very good, just thought some people would like the details."
